<svg xmlns="http://www.w3.org/2000/svg" xmlns:xlink="http://www.w3.org/1999/xlink" version="1.1" class="marks" width="647" height="469" viewBox="0 0 647 469"><rect width="647" height="469" fill="white"/><g fill="none" stroke-miterlimit="10" transform="translate(42,31)"><g class="mark-group role-frame root" role="graphics-object" aria-roledescription="group mark container"><g transform="translate(0,0)"><path class="background" aria-hidden="true" d="M0,0h600v400h-600Z" stroke="#ddd" stroke-width="0"/><g><g class="mark-group role-axis" aria-hidden="true"><g transform="translate(0.5,0.5)"><path class="background" aria-hidden="true" d="M0,0h0v0h0Z" pointer-events="none"/><g><g class="mark-rule role-axis-grid" pointer-events="none"><line transform="translate(0,400)" x2="600" y2="0" stroke="#e5e7eb" stroke-width="1" opacity="1"/><line transform="translate(0,360)" x2="600" y2="0" stroke="#e5e7eb" stroke-width="1" opacity="1"/><line transform="translate(0,320)" x2="600" y2="0" stroke="#e5e7eb" stroke-width="1" opacity="1"/><line transform="translate(0,280)" x2="600" y2="0" stroke="#e5e7eb" stroke-width="1" opacity="1"/><line transform="translate(0,240)" x2="600" y2="0" stroke="#e5e7eb" stroke-width="1" opacity="1"/><line transform="translate(0,200)" x2="600" y2="0" stroke="#e5e7eb" stroke-width="1" opacity="1"/><line transform="translate(0,160)" x2="600" y2="0" stroke="#e5e7eb" stroke-width="1" opacity="1"/><line transform="translate(0,120)" x2="600" y2="0" stroke="#e5e7eb" stroke-width="1" opacity="1"/><line transform="translate(0,80)" x2="600" y2="0" stroke="#e5e7eb" stroke-width="1" opacity="1"/><line transform="translate(0,40)" x2="600" y2="0" stroke="#e5e7eb" stroke-width="1" opacity="1"/><line transform="translate(0,0)" x2="600" y2="0" stroke="#e5e7eb" stroke-width="1" opacity="1"/></g></g><path class="foreground" aria-hidden="true" d="" pointer-events="none" display="none"/></g></g><g class="mark-group role-axis" role="graphics-symbol" aria-roledescription="axis" aria-label="X-axis titled 'Year' for a discrete scale with 67 values: 1959, 1960, 1961, 1962, 1963, ending with 2025"><g transform="translate(0.5,400.5)"><path class="background" aria-hidden="true" d="M0,0h0v0h0Z" pointer-events="none"/><g><g class="mark-rule role-axis-tick" pointer-events="none"><line transform="translate(13,0)" x2="0" y2="5" stroke="#888" stroke-width="1" opacity="1"/><line transform="translate(103,0)" x2="0" y2="5" stroke="#888" stroke-width="1" opacity="1"/><line transform="translate(193,0)" x2="0" y2="5" stroke="#888" stroke-width="1" opacity="1"/><line transform="translate(282,0)" x2="0" y2="5" stroke="#888" stroke-width="1" opacity="1"/><line transform="translate(372,0)" x2="0" y2="5" stroke="#888" stroke-width="1" opacity="1"/><line transform="translate(461,0)" x2="0" y2="5" stroke="#888" stroke-width="1" opacity="1"/><line transform="translate(551,0)" x2="0" y2="5" stroke="#888" stroke-width="1" opacity="1"/></g><g class="mark-text role-axis-label" pointer-events="none"><text text-anchor="middle" transform="translate(13.43283582089553,16)" font-family="Lexend, system-ui, sans-serif" font-size="11px" fill="#4a5568" opacity="1">1960</text><text text-anchor="middle" transform="translate(102.98507462686567,16)" font-family="Lexend, system-ui, sans-serif" font-size="11px" fill="#4a5568" opacity="1">1970</text><text text-anchor="middle" transform="translate(192.53731343283582,16)" font-family="Lexend, system-ui, sans-serif" font-size="11px" fill="#4a5568" opacity="1">1980</text><text text-anchor="middle" transform="translate(282.08955223880594,16)" font-family="Lexend, system-ui, sans-serif" font-size="11px" fill="#4a5568" opacity="1">1990</text><text text-anchor="middle" transform="translate(371.6417910447761,16)" font-family="Lexend, system-ui, sans-serif" font-size="11px" fill="#4a5568" opacity="1">2000</text><text text-anchor="middle" transform="translate(461.19402985074623,16)" font-family="Lexend, system-ui, sans-serif" font-size="11px" fill="#4a5568" opacity="1">2010</text><text text-anchor="middle" transform="translate(550.7462686567163,16)" font-family="Lexend, system-ui, sans-serif" font-size="11px" fill="#4a5568" opacity="1">2020</text></g><g class="mark-rule role-axis-domain" pointer-events="none"><line transform="translate(0,0)" x2="600" y2="0" stroke="#9ca3af" stroke-width="1" opacity="1"/></g><g class="mark-text role-axis-title" pointer-events="none"><text text-anchor="middle" transform="translate(300,31)" font-family="Lexend, system-ui, sans-serif" font-size="12px" font-weight="bold" fill="#1a1a2e" opacity="1">Year</text></g></g><path class="foreground" aria-hidden="true" d="" pointer-events="none" display="none"/></g></g><g class="mark-group role-axis" role="graphics-symbol" aria-roledescription="axis" aria-label="Y-axis titled 'Housing (% of PCE)' for a linear scale with values from 0 to 20"><g transform="translate(0.5,0.5)"><path class="background" aria-hidden="true" d="M0,0h0v0h0Z" pointer-events="none"/><g><g class="mark-rule role-axis-tick" pointer-events="none"><line transform="translate(0,400)" x2="-5" y2="0" stroke="#888" stroke-width="1" opacity="1"/><line transform="translate(0,360)" x2="-5" y2="0" stroke="#888" stroke-width="1" opacity="1"/><line transform="translate(0,320)" x2="-5" y2="0" stroke="#888" stroke-width="1" opacity="1"/><line transform="translate(0,280)" x2="-5" y2="0" stroke="#888" stroke-width="1" opacity="1"/><line transform="translate(0,240)" x2="-5" y2="0" stroke="#888" stroke-width="1" opacity="1"/><line transform="translate(0,200)" x2="-5" y2="0" stroke="#888" stroke-width="1" opacity="1"/><line transform="translate(0,160)" x2="-5" y2="0" stroke="#888" stroke-width="1" opacity="1"/><line transform="translate(0,120)" x2="-5" y2="0" stroke="#888" stroke-width="1" opacity="1"/><line transform="translate(0,80)" x2="-5" y2="0" stroke="#888" stroke-width="1" opacity="1"/><line transform="translate(0,40)" x2="-5" y2="0" stroke="#888" stroke-width="1" opacity="1"/><line transform="translate(0,0)" x2="-5" y2="0" stroke="#888" stroke-width="1" opacity="1"/></g><g class="mark-text role-axis-label" pointer-events="none"><text text-anchor="end" transform="translate(-7,403)" font-family="Lexend, system-ui, sans-serif" font-size="11px" fill="#4a5568" opacity="1">0</text><text text-anchor="end" transform="translate(-7,363)" font-family="Lexend, system-ui, sans-serif" font-size="11px" fill="#4a5568" opacity="1">2</text><text text-anchor="end" transform="translate(-7,323)" font-family="Lexend, system-ui, sans-serif" font-size="11px" fill="#4a5568" opacity="1">4</text><text text-anchor="end" transform="translate(-7,283)" font-family="Lexend, system-ui, sans-serif" font-size="11px" fill="#4a5568" opacity="1">6</text><text text-anchor="end" transform="translate(-7,243)" font-family="Lexend, system-ui, sans-serif" font-size="11px" fill="#4a5568" opacity="1">8</text><text text-anchor="end" transform="translate(-7,203)" font-family="Lexend, system-ui, sans-serif" font-size="11px" fill="#4a5568" opacity="1">10</text><text text-anchor="end" transform="translate(-7,163)" font-family="Lexend, system-ui, sans-serif" font-size="11px" fill="#4a5568" opacity="1">12</text><text text-anchor="end" transform="translate(-7,123.00000000000001)" font-family="Lexend, system-ui, sans-serif" font-size="11px" fill="#4a5568" opacity="1">14</text><text text-anchor="end" transform="translate(-7,82.99999999999999)" font-family="Lexend, system-ui, sans-serif" font-size="11px" fill="#4a5568" opacity="1">16</text><text text-anchor="end" transform="translate(-7,42.99999999999999)" font-family="Lexend, system-ui, sans-serif" font-size="11px" fill="#4a5568" opacity="1">18</text><text text-anchor="end" transform="translate(-7,3)" font-family="Lexend, system-ui, sans-serif" font-size="11px" fill="#4a5568" opacity="1">20</text></g><g class="mark-rule role-axis-domain" pointer-events="none"><line transform="translate(0,400)" x2="0" y2="-400" stroke="#9ca3af" stroke-width="1" opacity="1"/></g><g class="mark-text role-axis-title" pointer-events="none"><text text-anchor="middle" transform="translate(-23.2353515625,200) rotate(-90) translate(0,-3)" font-family="Lexend, system-ui, sans-serif" font-size="12px" font-weight="bold" fill="#1a1a2e" opacity="1">Housing (% of PCE)</text></g></g><path class="foreground" aria-hidden="true" d="" pointer-events="none" display="none"/></g></g><g class="mark-line role-mark marks" role="graphics-object" aria-roledescription="line mark container"><path aria-label="Year: 1959; Housing (% of PCE): 16.79" role="graphics-symbol" aria-roledescription="line mark" d="M4.478,64.2L13.433,58L22.388,44.4L31.343,41.8L40.299,41.4L49.254,46.8L58.209,51.8L67.164,60L76.119,57.2L85.075,64.2L94.03,63.2L102.985,59.6L111.94,54.8L120.896,55.8L129.851,59.8L138.806,56.4L147.761,53L156.716,58.4L165.672,55.2L174.627,52.2L183.582,51L192.537,40.8L201.493,33.4L210.448,23L219.403,28.2L228.358,30.4L237.313,27.4L246.269,25.6L255.224,25.2L264.179,28.6L273.134,32.2L282.09,33.2L291.045,25.2L300,30.8L308.955,32.4L317.91,32.4L326.866,29.4L335.821,31.2L344.776,33.8L353.731,35.2L362.687,40.2L371.642,43.4L380.597,35.8L389.552,37.2L398.507,38.6L407.463,41.8L416.418,38.6L425.373,39.8L434.328,37.4L443.284,28.2L452.239,15L461.194,18.8L470.149,28.4L479.104,34.2L488.06,32.6L497.015,37L505.97,41.6L514.925,42L523.881,44.8L532.836,46.2L541.791,43.4L550.746,14.8L559.701,44L568.657,46L577.612,40.4L586.567,35.8L595.522,35.2" stroke="#2563eb" stroke-width="2.5"/></g><g class="mark-group role-title"><g transform="translate(-36.2353515625,-26)"><path class="background" aria-hidden="true" d="M0,0h0v0h0Z" pointer-events="none"/><g><g class="mark-text role-title-text" role="graphics-symbol" aria-roledescription="title" aria-label="Title text 'Housing as Share of Personal Consumption'" pointer-events="none"><text text-anchor="start" transform="translate(0,13)" font-family="Lexend, system-ui, sans-serif" font-size="16px" font-weight="600" fill="#1a1a2e" opacity="1">Housing as Share of Personal Consumption</text></g></g><path class="foreground" aria-hidden="true" d="" pointer-events="none" display="none"/></g></g></g><path class="foreground" aria-hidden="true" d="" display="none"/></g></g></g></svg>