<svg xmlns="http://www.w3.org/2000/svg" xmlns:xlink="http://www.w3.org/1999/xlink" version="1.1" class="marks" width="769" height="469" viewBox="0 0 769 469"><rect width="769" height="469" fill="white"/><g fill="none" stroke-miterlimit="10" transform="translate(51,31)"><g class="mark-group role-frame root" role="graphics-object" aria-roledescription="group mark container"><g transform="translate(0,0)"><path class="background" aria-hidden="true" d="M0,0h600v400h-600Z" stroke="#ddd" stroke-width="0"/><g><g class="mark-group role-axis" aria-hidden="true"><g transform="translate(0.5,0.5)"><path class="background" aria-hidden="true" d="M0,0h0v0h0Z" pointer-events="none"/><g><g class="mark-rule role-axis-grid" pointer-events="none"><line transform="translate(0,400)" x2="600" y2="0" stroke="#e5e7eb" stroke-width="1" opacity="1"/><line transform="translate(0,364)" x2="600" y2="0" stroke="#e5e7eb" stroke-width="1" opacity="1"/><line transform="translate(0,327)" x2="600" y2="0" stroke="#e5e7eb" stroke-width="1" opacity="1"/><line transform="translate(0,291)" x2="600" y2="0" stroke="#e5e7eb" stroke-width="1" opacity="1"/><line transform="translate(0,255)" x2="600" y2="0" stroke="#e5e7eb" stroke-width="1" opacity="1"/><line transform="translate(0,218)" x2="600" y2="0" stroke="#e5e7eb" stroke-width="1" opacity="1"/><line transform="translate(0,182)" x2="600" y2="0" stroke="#e5e7eb" stroke-width="1" opacity="1"/><line transform="translate(0,145)" x2="600" y2="0" stroke="#e5e7eb" stroke-width="1" opacity="1"/><line transform="translate(0,109)" x2="600" y2="0" stroke="#e5e7eb" stroke-width="1" opacity="1"/><line transform="translate(0,73)" x2="600" y2="0" stroke="#e5e7eb" stroke-width="1" opacity="1"/><line transform="translate(0,36)" x2="600" y2="0" stroke="#e5e7eb" stroke-width="1" opacity="1"/><line transform="translate(0,0)" x2="600" y2="0" stroke="#e5e7eb" stroke-width="1" opacity="1"/></g></g><path class="foreground" aria-hidden="true" d="" pointer-events="none" display="none"/></g></g><g class="mark-group role-axis" role="graphics-symbol" aria-roledescription="axis" aria-label="X-axis titled 'Year' for a discrete scale with 9 values: 2005, 2006, 2007, 2008, 2009, ending with 2013"><g transform="translate(0.5,400.5)"><path class="background" aria-hidden="true" d="M0,0h0v0h0Z" pointer-events="none"/><g><g class="mark-rule role-axis-tick" pointer-events="none"><line transform="translate(367,0)" x2="0" y2="5" stroke="#888" stroke-width="1" opacity="1"/></g><g class="mark-text role-axis-label" pointer-events="none"><text text-anchor="middle" transform="translate(366.6666666666667,16)" font-family="Lexend, system-ui, sans-serif" font-size="11px" fill="#4a5568" opacity="1">2010</text></g><g class="mark-rule role-axis-domain" pointer-events="none"><line transform="translate(0,0)" x2="600" y2="0" stroke="#9ca3af" stroke-width="1" opacity="1"/></g><g class="mark-text role-axis-title" pointer-events="none"><text text-anchor="middle" transform="translate(300,31)" font-family="Lexend, system-ui, sans-serif" font-size="12px" font-weight="bold" fill="#1a1a2e" opacity="1">Year</text></g></g><path class="foreground" aria-hidden="true" d="" pointer-events="none" display="none"/></g></g><g class="mark-group role-axis" role="graphics-symbol" aria-roledescription="axis" aria-label="Y-axis titled 'GDP Growth (%)' for a linear scale with values from −6.0 to 16.0"><g transform="translate(0.5,0.5)"><path class="background" aria-hidden="true" d="M0,0h0v0h0Z" pointer-events="none"/><g><g class="mark-rule role-axis-tick" pointer-events="none"><line transform="translate(0,400)" x2="-5" y2="0" stroke="#888" stroke-width="1" opacity="1"/><line transform="translate(0,364)" x2="-5" y2="0" stroke="#888" stroke-width="1" opacity="1"/><line transform="translate(0,327)" x2="-5" y2="0" stroke="#888" stroke-width="1" opacity="1"/><line transform="translate(0,291)" x2="-5" y2="0" stroke="#888" stroke-width="1" opacity="1"/><line transform="translate(0,255)" x2="-5" y2="0" stroke="#888" stroke-width="1" opacity="1"/><line transform="translate(0,218)" x2="-5" y2="0" stroke="#888" stroke-width="1" opacity="1"/><line transform="translate(0,182)" x2="-5" y2="0" stroke="#888" stroke-width="1" opacity="1"/><line transform="translate(0,145)" x2="-5" y2="0" stroke="#888" stroke-width="1" opacity="1"/><line transform="translate(0,109)" x2="-5" y2="0" stroke="#888" stroke-width="1" opacity="1"/><line transform="translate(0,73)" x2="-5" y2="0" stroke="#888" stroke-width="1" opacity="1"/><line transform="translate(0,36)" x2="-5" y2="0" stroke="#888" stroke-width="1" opacity="1"/><line transform="translate(0,0)" x2="-5" y2="0" stroke="#888" stroke-width="1" opacity="1"/></g><g class="mark-text role-axis-label" pointer-events="none"><text text-anchor="end" transform="translate(-7,403)" font-family="Lexend, system-ui, sans-serif" font-size="11px" fill="#4a5568" opacity="1">−6.0</text><text text-anchor="end" transform="translate(-7,366.6363636363636)" font-family="Lexend, system-ui, sans-serif" font-size="11px" fill="#4a5568" opacity="1">−4.0</text><text text-anchor="end" transform="translate(-7,330.27272727272725)" font-family="Lexend, system-ui, sans-serif" font-size="11px" fill="#4a5568" opacity="1">−2.0</text><text text-anchor="end" transform="translate(-7,293.90909090909093)" font-family="Lexend, system-ui, sans-serif" font-size="11px" fill="#4a5568" opacity="1">0.0</text><text text-anchor="end" transform="translate(-7,257.5454545454545)" font-family="Lexend, system-ui, sans-serif" font-size="11px" fill="#4a5568" opacity="1">2.0</text><text text-anchor="end" transform="translate(-7,221.18181818181816)" font-family="Lexend, system-ui, sans-serif" font-size="11px" fill="#4a5568" opacity="1">4.0</text><text text-anchor="end" transform="translate(-7,184.81818181818184)" font-family="Lexend, system-ui, sans-serif" font-size="11px" fill="#4a5568" opacity="1">6.0</text><text text-anchor="end" transform="translate(-7,148.45454545454547)" font-family="Lexend, system-ui, sans-serif" font-size="11px" fill="#4a5568" opacity="1">8.0</text><text text-anchor="end" transform="translate(-7,112.09090909090908)" font-family="Lexend, system-ui, sans-serif" font-size="11px" fill="#4a5568" opacity="1">10.0</text><text text-anchor="end" transform="translate(-7,75.7272727272727)" font-family="Lexend, system-ui, sans-serif" font-size="11px" fill="#4a5568" opacity="1">12.0</text><text text-anchor="end" transform="translate(-7,39.363636363636374)" font-family="Lexend, system-ui, sans-serif" font-size="11px" fill="#4a5568" opacity="1">14.0</text><text text-anchor="end" transform="translate(-7,3)" font-family="Lexend, system-ui, sans-serif" font-size="11px" fill="#4a5568" opacity="1">16.0</text></g><g class="mark-rule role-axis-domain" pointer-events="none"><line transform="translate(0,400)" x2="0" y2="-400" stroke="#9ca3af" stroke-width="1" opacity="1"/></g><g class="mark-text role-axis-title" pointer-events="none"><text text-anchor="middle" transform="translate(-32.71533203125,200) rotate(-90) translate(0,-3)" font-family="Lexend, system-ui, sans-serif" font-size="12px" font-weight="bold" fill="#1a1a2e" opacity="1">GDP Growth (%)</text></g></g><path class="foreground" aria-hidden="true" d="" pointer-events="none" display="none"/></g></g><g class="mark-group role-scope pathgroup" role="graphics-object" aria-roledescription="group mark container"><g transform="translate(0,0)"><path class="background" aria-hidden="true" d="M0,0h600v400h-600Z"/><g><g class="mark-line role-mark marks" role="graphics-object" aria-roledescription="line mark container"><path aria-label="Year: 2005; GDP Growth (%): 11.5; country: China" role="graphics-symbol" aria-roledescription="line mark" d="M33.333,82.577L100,60.46L166.667,33.637L233.333,115.086L300,119.951L366.667,98.25L433.333,118.885L500,148.07L566.667,149.478" stroke="#2563eb" stroke-width="2.5"/></g></g><path class="foreground" aria-hidden="true" d="" display="none"/></g><g transform="translate(0,0)"><path class="background" aria-hidden="true" d="M0,0h600v400h-600Z"/><g><g class="mark-line role-mark marks" role="graphics-object" aria-roledescription="line mark container"><path aria-label="Year: 2005; GDP Growth (%): 0.9; country: Germany" role="graphics-symbol" aria-roledescription="line mark" d="M33.333,274.809L100,220.606L166.667,238.38L233.333,274.765L300,391.719L366.667,215.734L433.333,222.582L500,282.482L566.667,283.691" stroke="#16a34a" stroke-width="2.5"/></g></g><path class="foreground" aria-hidden="true" d="" display="none"/></g><g transform="translate(0,0)"><path class="background" aria-hidden="true" d="M0,0h600v400h-600Z"/><g><g class="mark-line role-mark marks" role="graphics-object" aria-roledescription="line mark container"><path aria-label="Year: 2005; GDP Growth (%): 1.8; country: Japan" role="graphics-symbol" aria-roledescription="line mark" d="M33.333,258.111L100,265.957L166.667,263.928L233.333,313.169L300,394.422L366.667,216.401L433.333,290.476L500,265.914L566.667,254.453" stroke="#dc2626" stroke-width="2.5"/></g></g><path class="foreground" aria-hidden="true" d="" display="none"/></g><g transform="translate(0,0)"><path class="background" aria-hidden="true" d="M0,0h600v400h-600Z"/><g><g class="mark-line role-mark marks" role="graphics-object" aria-roledescription="line mark container"><path aria-label="Year: 2005; GDP Growth (%): 2.8; country: United Kingdom" role="graphics-symbol" aria-roledescription="line mark" d="M33.333,240.17L100,251.094L166.667,237.62L233.333,291.807L300,374.317L366.667,249.808L433.333,275.428L500,263.123L566.667,259.664" stroke="#9333ea" stroke-width="2.5"/></g></g><path class="foreground" aria-hidden="true" d="" display="none"/></g><g transform="translate(0,0)"><path class="background" aria-hidden="true" d="M0,0h600v400h-600Z"/><g><g class="mark-line role-mark marks" role="graphics-object" aria-roledescription="line mark container"><path aria-label="Year: 2005; GDP Growth (%): 3.5; country: United States" role="graphics-symbol" aria-roledescription="line mark" d="M33.333,227.572L100,240.281L166.667,254.475L233.333,288.844L300,337.755L366.667,241.906L433.333,262.465L500,249.289L566.667,252.403" stroke="#ea580c" stroke-width="2.5"/></g></g><path class="foreground" aria-hidden="true" d="" display="none"/></g></g><g class="mark-group role-legend" role="graphics-symbol" aria-roledescription="legend" aria-label="Symbol legend titled 'country' for stroke color with 5 values: China, Germany, Japan, United Kingdom, United States"><g transform="translate(618,0)"><path class="background" aria-hidden="true" d="M0,0h95v80h-95Z" pointer-events="none"/><g><g class="mark-group role-legend-entry"><g transform="translate(0,17)"><path class="background" aria-hidden="true" d="M0,0h0v0h0Z" pointer-events="none"/><g><g class="mark-group role-scope" role="graphics-object" aria-roledescription="group mark container"><g transform="translate(0,0)"><path class="background" aria-hidden="true" d="M0,0h94.267578125v11h-94.267578125Z" pointer-events="none" opacity="1"/><g><g class="mark-symbol role-legend-symbol" pointer-events="none"><path transform="translate(6,6)" d="M-5,0L5,0" stroke="#2563eb" stroke-width="1.5" opacity="1"/></g><g class="mark-text role-legend-label" pointer-events="none"><text text-anchor="start" transform="translate(16,9)" font-family="Lexend, system-ui, sans-serif" font-size="11px" fill="#000" opacity="1">China</text></g></g><path class="foreground" aria-hidden="true" d="" pointer-events="none" display="none"/></g><g transform="translate(0,13)"><path class="background" aria-hidden="true" d="M0,0h94.267578125v11h-94.267578125Z" pointer-events="none" opacity="1"/><g><g class="mark-symbol role-legend-symbol" pointer-events="none"><path transform="translate(6,6)" d="M-5,0L5,0" stroke="#16a34a" stroke-width="1.5" opacity="1"/></g><g class="mark-text role-legend-label" pointer-events="none"><text text-anchor="start" transform="translate(16,9)" font-family="Lexend, system-ui, sans-serif" font-size="11px" fill="#000" opacity="1">Germany</text></g></g><path class="foreground" aria-hidden="true" d="" pointer-events="none" display="none"/></g><g transform="translate(0,26)"><path class="background" aria-hidden="true" d="M0,0h94.267578125v11h-94.267578125Z" pointer-events="none" opacity="1"/><g><g class="mark-symbol role-legend-symbol" pointer-events="none"><path transform="translate(6,6)" d="M-5,0L5,0" stroke="#dc2626" stroke-width="1.5" opacity="1"/></g><g class="mark-text role-legend-label" pointer-events="none"><text text-anchor="start" transform="translate(16,9)" font-family="Lexend, system-ui, sans-serif" font-size="11px" fill="#000" opacity="1">Japan</text></g></g><path class="foreground" aria-hidden="true" d="" pointer-events="none" display="none"/></g><g transform="translate(0,39)"><path class="background" aria-hidden="true" d="M0,0h94.267578125v11h-94.267578125Z" pointer-events="none" opacity="1"/><g><g class="mark-symbol role-legend-symbol" pointer-events="none"><path transform="translate(6,6)" d="M-5,0L5,0" stroke="#9333ea" stroke-width="1.5" opacity="1"/></g><g class="mark-text role-legend-label" pointer-events="none"><text text-anchor="start" transform="translate(16,9)" font-family="Lexend, system-ui, sans-serif" font-size="11px" fill="#000" opacity="1">United Kingdom</text></g></g><path class="foreground" aria-hidden="true" d="" pointer-events="none" display="none"/></g><g transform="translate(0,52)"><path class="background" aria-hidden="true" d="M0,0h94.267578125v11h-94.267578125Z" pointer-events="none" opacity="1"/><g><g class="mark-symbol role-legend-symbol" pointer-events="none"><path transform="translate(6,6)" d="M-5,0L5,0" stroke="#ea580c" stroke-width="1.5" opacity="1"/></g><g class="mark-text role-legend-label" pointer-events="none"><text text-anchor="start" transform="translate(16,9)" font-family="Lexend, system-ui, sans-serif" font-size="11px" fill="#000" opacity="1">United States</text></g></g><path class="foreground" aria-hidden="true" d="" pointer-events="none" display="none"/></g></g></g><path class="foreground" aria-hidden="true" d="" pointer-events="none" display="none"/></g></g><g class="mark-text role-legend-title" pointer-events="none"><text text-anchor="start" transform="translate(0,9)" font-family="Lexend, system-ui, sans-serif" font-size="12px" font-weight="bold" fill="#000" opacity="1">country</text></g></g><path class="foreground" aria-hidden="true" d="" pointer-events="none" display="none"/></g></g><g class="mark-group role-title"><g transform="translate(-45.71533203125,-26)"><path class="background" aria-hidden="true" d="M0,0h0v0h0Z" pointer-events="none"/><g><g class="mark-text role-title-text" role="graphics-symbol" aria-roledescription="title" aria-label="Title text 'The 2008 Financial Crisis: Global Synchronization'" pointer-events="none"><text text-anchor="start" transform="translate(0,13)" font-family="Lexend, system-ui, sans-serif" font-size="16px" font-weight="600" fill="#1a1a2e" opacity="1">The 2008 Financial Crisis: Global Synchronization</text></g></g><path class="foreground" aria-hidden="true" d="" pointer-events="none" display="none"/></g></g></g><path class="foreground" aria-hidden="true" d="" display="none"/></g></g></g></svg>