<svg xmlns="http://www.w3.org/2000/svg" xmlns:xlink="http://www.w3.org/1999/xlink" version="1.1" class="marks" width="757" height="469" viewBox="0 0 757 469"><rect width="757" height="469" fill="white"/><g fill="none" stroke-miterlimit="10" transform="translate(51,31)"><g class="mark-group role-frame root" role="graphics-object" aria-roledescription="group mark container"><g transform="translate(0,0)"><path class="background" aria-hidden="true" d="M0,0h600v400h-600Z" stroke="#ddd" stroke-width="0"/><g><g class="mark-group role-axis" aria-hidden="true"><g transform="translate(0.5,0.5)"><path class="background" aria-hidden="true" d="M0,0h0v0h0Z" pointer-events="none"/><g><g class="mark-rule role-axis-grid" pointer-events="none"><line transform="translate(0,400)" x2="600" y2="0" stroke="#e5e7eb" stroke-width="1" opacity="1"/><line transform="translate(0,356)" x2="600" y2="0" stroke="#e5e7eb" stroke-width="1" opacity="1"/><line transform="translate(0,311)" x2="600" y2="0" stroke="#e5e7eb" stroke-width="1" opacity="1"/><line transform="translate(0,267)" x2="600" y2="0" stroke="#e5e7eb" stroke-width="1" opacity="1"/><line transform="translate(0,222)" x2="600" y2="0" stroke="#e5e7eb" stroke-width="1" opacity="1"/><line transform="translate(0,178)" x2="600" y2="0" stroke="#e5e7eb" stroke-width="1" opacity="1"/><line transform="translate(0,133)" x2="600" y2="0" stroke="#e5e7eb" stroke-width="1" opacity="1"/><line transform="translate(0,89)" x2="600" y2="0" stroke="#e5e7eb" stroke-width="1" opacity="1"/><line transform="translate(0,44)" x2="600" y2="0" stroke="#e5e7eb" stroke-width="1" opacity="1"/><line transform="translate(0,0)" x2="600" y2="0" stroke="#e5e7eb" stroke-width="1" opacity="1"/></g></g><path class="foreground" aria-hidden="true" d="" pointer-events="none" display="none"/></g></g><g class="mark-group role-axis" role="graphics-symbol" aria-roledescription="axis" aria-label="X-axis titled 'Year' for a discrete scale with 54 values: 1970, 1971, 1972, 1973, 1974, ending with 2023"><g transform="translate(0.5,400.5)"><path class="background" aria-hidden="true" d="M0,0h0v0h0Z" pointer-events="none"/><g><g class="mark-rule role-axis-tick" pointer-events="none"><line transform="translate(6,0)" x2="0" y2="5" stroke="#888" stroke-width="1" opacity="1"/><line transform="translate(117,0)" x2="0" y2="5" stroke="#888" stroke-width="1" opacity="1"/><line transform="translate(228,0)" x2="0" y2="5" stroke="#888" stroke-width="1" opacity="1"/><line transform="translate(339,0)" x2="0" y2="5" stroke="#888" stroke-width="1" opacity="1"/><line transform="translate(450,0)" x2="0" y2="5" stroke="#888" stroke-width="1" opacity="1"/><line transform="translate(561,0)" x2="0" y2="5" stroke="#888" stroke-width="1" opacity="1"/></g><g class="mark-text role-axis-label" pointer-events="none"><text text-anchor="middle" transform="translate(5.555555555555543,16)" font-family="Lexend, system-ui, sans-serif" font-size="11px" fill="#4a5568" opacity="1">1970</text><text text-anchor="middle" transform="translate(116.66666666666666,16)" font-family="Lexend, system-ui, sans-serif" font-size="11px" fill="#4a5568" opacity="1">1980</text><text text-anchor="middle" transform="translate(227.77777777777777,16)" font-family="Lexend, system-ui, sans-serif" font-size="11px" fill="#4a5568" opacity="1">1990</text><text text-anchor="middle" transform="translate(338.88888888888886,16)" font-family="Lexend, system-ui, sans-serif" font-size="11px" fill="#4a5568" opacity="1">2000</text><text text-anchor="middle" transform="translate(450,16)" font-family="Lexend, system-ui, sans-serif" font-size="11px" fill="#4a5568" opacity="1">2010</text><text text-anchor="middle" transform="translate(561.1111111111111,16)" font-family="Lexend, system-ui, sans-serif" font-size="11px" fill="#4a5568" opacity="1">2020</text></g><g class="mark-rule role-axis-domain" pointer-events="none"><line transform="translate(0,0)" x2="600" y2="0" stroke="#9ca3af" stroke-width="1" opacity="1"/></g><g class="mark-text role-axis-title" pointer-events="none"><text text-anchor="middle" transform="translate(300,31)" font-family="Lexend, system-ui, sans-serif" font-size="12px" font-weight="bold" fill="#1a1a2e" opacity="1">Year</text></g></g><path class="foreground" aria-hidden="true" d="" pointer-events="none" display="none"/></g></g><g class="mark-group role-axis" role="graphics-symbol" aria-roledescription="axis" aria-label="Y-axis titled 'Gross Fixed Capital Formation (% of GDP)' for a linear scale with values from 0.0 to 45.0"><g transform="translate(0.5,0.5)"><path class="background" aria-hidden="true" d="M0,0h0v0h0Z" pointer-events="none"/><g><g class="mark-rule role-axis-tick" pointer-events="none"><line transform="translate(0,400)" x2="-5" y2="0" stroke="#888" stroke-width="1" opacity="1"/><line transform="translate(0,356)" x2="-5" y2="0" stroke="#888" stroke-width="1" opacity="1"/><line transform="translate(0,311)" x2="-5" y2="0" stroke="#888" stroke-width="1" opacity="1"/><line transform="translate(0,267)" x2="-5" y2="0" stroke="#888" stroke-width="1" opacity="1"/><line transform="translate(0,222)" x2="-5" y2="0" stroke="#888" stroke-width="1" opacity="1"/><line transform="translate(0,178)" x2="-5" y2="0" stroke="#888" stroke-width="1" opacity="1"/><line transform="translate(0,133)" x2="-5" y2="0" stroke="#888" stroke-width="1" opacity="1"/><line transform="translate(0,89)" x2="-5" y2="0" stroke="#888" stroke-width="1" opacity="1"/><line transform="translate(0,44)" x2="-5" y2="0" stroke="#888" stroke-width="1" opacity="1"/><line transform="translate(0,0)" x2="-5" y2="0" stroke="#888" stroke-width="1" opacity="1"/></g><g class="mark-text role-axis-label" pointer-events="none"><text text-anchor="end" transform="translate(-7,403)" font-family="Lexend, system-ui, sans-serif" font-size="11px" fill="#4a5568" opacity="1">0.0</text><text text-anchor="end" transform="translate(-7,358.55555555555554)" font-family="Lexend, system-ui, sans-serif" font-size="11px" fill="#4a5568" opacity="1">5.0</text><text text-anchor="end" transform="translate(-7,314.11111111111114)" font-family="Lexend, system-ui, sans-serif" font-size="11px" fill="#4a5568" opacity="1">10.0</text><text text-anchor="end" transform="translate(-7,269.6666666666667)" font-family="Lexend, system-ui, sans-serif" font-size="11px" fill="#4a5568" opacity="1">15.0</text><text text-anchor="end" transform="translate(-7,225.22222222222223)" font-family="Lexend, system-ui, sans-serif" font-size="11px" fill="#4a5568" opacity="1">20.0</text><text text-anchor="end" transform="translate(-7,180.77777777777777)" font-family="Lexend, system-ui, sans-serif" font-size="11px" fill="#4a5568" opacity="1">25.0</text><text text-anchor="end" transform="translate(-7,136.33333333333334)" font-family="Lexend, system-ui, sans-serif" font-size="11px" fill="#4a5568" opacity="1">30.0</text><text text-anchor="end" transform="translate(-7,91.88888888888889)" font-family="Lexend, system-ui, sans-serif" font-size="11px" fill="#4a5568" opacity="1">35.0</text><text text-anchor="end" transform="translate(-7,47.444444444444464)" font-family="Lexend, system-ui, sans-serif" font-size="11px" fill="#4a5568" opacity="1">40.0</text><text text-anchor="end" transform="translate(-7,3)" font-family="Lexend, system-ui, sans-serif" font-size="11px" fill="#4a5568" opacity="1">45.0</text></g><g class="mark-rule role-axis-domain" pointer-events="none"><line transform="translate(0,400)" x2="0" y2="-400" stroke="#9ca3af" stroke-width="1" opacity="1"/></g><g class="mark-text role-axis-title" pointer-events="none"><text text-anchor="middle" transform="translate(-32.4091796875,200) rotate(-90) translate(0,-3)" font-family="Lexend, system-ui, sans-serif" font-size="12px" font-weight="bold" fill="#1a1a2e" opacity="1">Gross Fixed Capital Formation (% of GDP)</text></g></g><path class="foreground" aria-hidden="true" d="" pointer-events="none" display="none"/></g></g><g class="mark-group role-scope pathgroup" role="graphics-object" aria-roledescription="group mark container"><g transform="translate(0,0)"><path class="background" aria-hidden="true" d="M0,0h600v400h-600Z"/><g><g class="mark-line role-mark marks" role="graphics-object" aria-roledescription="line mark container"><path aria-label="Year: 1970; Gross Fixed Capital Formation (% of GDP): 24.1; short_name: China" role="graphics-symbol" aria-roledescription="line mark" d="M5.556,185.768L16.667,179.494L27.778,181.444L38.889,184.48L50,164.307L61.111,142.204L72.222,142.323L83.333,150.414L94.444,139.631L105.556,148.401L116.667,146.576L127.778,158.144L138.889,149.461L150,150.016L161.111,139.865L172.222,130.003L183.333,125.308L194.444,128.848L205.556,124.447L216.667,172.791L227.778,187.181L238.889,168.592L250,127.858L261.111,68.349L272.222,91.604L283.333,109.973L294.444,116.359L305.556,122.22L316.667,106.045L327.778,109.555L338.889,109.803L350,102.579L361.111,88.997L372.222,61.47L383.333,50.217L394.444,50.93L405.556,57.586L416.667,65.147L427.778,55.084L438.889,14.135L450,13.154L461.111,13.197L472.222,10.011L483.333,8.217L494.444,14.397L505.556,30.074L516.667,34.839L527.778,31.836L538.889,23.286L550,24.441L561.111,28.005L572.222,32.426L583.333,33.485L594.444,40.405" stroke="#2563eb" stroke-width="2.5"/></g></g><path class="foreground" aria-hidden="true" d="" display="none"/></g><g transform="translate(0,0)"><path class="background" aria-hidden="true" d="M0,0h600v400h-600Z"/><g><g class="mark-line role-mark marks" role="graphics-object" aria-roledescription="line mark container"><path aria-label="Year: 1970; Gross Fixed Capital Formation (% of GDP): 29.3; short_name: Germany" role="graphics-symbol" aria-roledescription="line mark" d="M5.556,139.982L16.667,133.796L27.778,139.672L38.889,153.891L50,178.42L61.111,189.912L72.222,191.5L83.333,188.979L94.444,184.14L105.556,176.029L116.667,169.822L127.778,180.173L138.889,192.595L150,190.546L161.111,194.609L172.222,199.14L183.333,200.229L194.444,198.839L205.556,196.595L216.667,190.557L227.778,183.358L238.889,179.204L250,177.702L261.111,187.007L272.222,186.447L283.333,191.425L294.444,196.152L305.556,199.355L316.667,198.214L327.778,197.036L338.889,196.596L350,208.503L361.111,223.229L372.222,228.765L383.333,232.609L394.444,233.205L405.556,227.001L416.667,224.754L427.778,222.551L438.889,232.549L450,229.456L461.111,222.15L472.222,222.522L483.333,225.981L494.444,224.155L505.556,224.464L516.667,221.832L527.778,221.032L538.889,214.955L550,211.98L561.111,210.287L572.222,211.72L583.333,207.991L594.444,211.629" stroke="#16a34a" stroke-width="2.5"/></g></g><path class="foreground" aria-hidden="true" d="" display="none"/></g><g transform="translate(0,0)"><path class="background" aria-hidden="true" d="M0,0h600v400h-600Z"/><g><g class="mark-line role-mark marks" role="graphics-object" aria-roledescription="line mark container"><path aria-label="Year: 1970; Gross Fixed Capital Formation (% of GDP): 38.9; short_name: Japan" role="graphics-symbol" aria-roledescription="line mark" d="M5.556,54.278L16.667,66.56L27.778,67.805L38.889,45.686L50,61.329L61.111,84.027L72.222,96.371L83.333,106.356L94.444,103.973L105.556,91.615L116.667,92.629L127.778,102.114L138.889,112.205L150,122.033L161.111,125.693L172.222,128.087L183.333,127.687L194.444,117.222L205.556,102.862L216.667,96.016L227.778,89.278L238.889,92.032L250,103.773L261.111,118.359L272.222,127.811L283.333,127.948L294.444,119.327L305.556,128.145L316.667,139.71L327.778,143.093L338.889,146.781L350,153.502L361.111,166.574L372.222,171.437L383.333,174.898L394.444,169.768L405.556,168.492L416.667,174.177L427.778,175.175L438.889,190.006L450,198.936L461.111,192.434L472.222,188.679L483.333,181.72L494.444,177.026L505.556,178.032L516.667,179.905L527.778,177.712L538.889,175.398L550,172.91L561.111,173.585L572.222,172.848L583.333,166.562L594.444,168.781" stroke="#dc2626" stroke-width="2.5"/></g></g><path class="foreground" aria-hidden="true" d="" display="none"/></g><g transform="translate(0,0)"><path class="background" aria-hidden="true" d="M0,0h600v400h-600Z"/><g><g class="mark-line role-mark marks" role="graphics-object" aria-roledescription="line mark container"><path aria-label="Year: 1970; Gross Fixed Capital Formation (% of GDP): 20.3; short_name: United States" role="graphics-symbol" aria-roledescription="line mark" d="M5.556,219.906L16.667,214.655L27.778,205.612L38.889,202.508L50,206.315L61.111,216.455L72.222,212.224L83.333,200.409L94.444,189.022L105.556,182.874L116.667,190.828L127.778,192.468L138.889,199.857L150,200.789L161.111,191.325L172.222,189.464L183.333,190.248L194.444,195.013L205.556,200.223L216.667,204.241L227.778,210.797L238.889,221.182L250,223.759L261.111,221.421L272.222,218.633L283.333,214.537L294.444,210.486L305.556,208.153L316.667,202.176L327.778,197.443L338.889,194.255L350,199.658L361.111,208.534L372.222,207.799L383.333,203.309L394.444,196.137L405.556,195.216L416.667,201.573L427.778,211.24L438.889,232.799L450,237.209L461.111,233.449L472.222,226.555L483.333,224.014L494.444,217.898L505.556,215.554L516.667,215.096L527.778,212.139L538.889,209.564L550,208.98L561.111,205.434L572.222,207.858L583.333,207.022L594.444,206.876" stroke="#9333ea" stroke-width="2.5"/></g></g><path class="foreground" aria-hidden="true" d="" display="none"/></g></g><g class="mark-group role-legend" role="graphics-symbol" aria-roledescription="legend" aria-label="Symbol legend titled 'short_name' for stroke color with 4 values: China, Germany, Japan, United States"><g transform="translate(618,0)"><path class="background" aria-hidden="true" d="M0,0h83v67h-83Z" pointer-events="none"/><g><g class="mark-group role-legend-entry"><g transform="translate(0,17)"><path class="background" aria-hidden="true" d="M0,0h0v0h0Z" pointer-events="none"/><g><g class="mark-group role-scope" role="graphics-object" aria-roledescription="group mark container"><g transform="translate(0,0)"><path class="background" aria-hidden="true" d="M0,0h82.03759765625v11h-82.03759765625Z" pointer-events="none" opacity="1"/><g><g class="mark-symbol role-legend-symbol" pointer-events="none"><path transform="translate(6,6)" d="M-5,0L5,0" stroke="#2563eb" stroke-width="1.5" opacity="1"/></g><g class="mark-text role-legend-label" pointer-events="none"><text text-anchor="start" transform="translate(16,9)" font-family="Lexend, system-ui, sans-serif" font-size="11px" fill="#000" opacity="1">China</text></g></g><path class="foreground" aria-hidden="true" d="" pointer-events="none" display="none"/></g><g transform="translate(0,13)"><path class="background" aria-hidden="true" d="M0,0h82.03759765625v11h-82.03759765625Z" pointer-events="none" opacity="1"/><g><g class="mark-symbol role-legend-symbol" pointer-events="none"><path transform="translate(6,6)" d="M-5,0L5,0" stroke="#16a34a" stroke-width="1.5" opacity="1"/></g><g class="mark-text role-legend-label" pointer-events="none"><text text-anchor="start" transform="translate(16,9)" font-family="Lexend, system-ui, sans-serif" font-size="11px" fill="#000" opacity="1">Germany</text></g></g><path class="foreground" aria-hidden="true" d="" pointer-events="none" display="none"/></g><g transform="translate(0,26)"><path class="background" aria-hidden="true" d="M0,0h82.03759765625v11h-82.03759765625Z" pointer-events="none" opacity="1"/><g><g class="mark-symbol role-legend-symbol" pointer-events="none"><path transform="translate(6,6)" d="M-5,0L5,0" stroke="#dc2626" stroke-width="1.5" opacity="1"/></g><g class="mark-text role-legend-label" pointer-events="none"><text text-anchor="start" transform="translate(16,9)" font-family="Lexend, system-ui, sans-serif" font-size="11px" fill="#000" opacity="1">Japan</text></g></g><path class="foreground" aria-hidden="true" d="" pointer-events="none" display="none"/></g><g transform="translate(0,39)"><path class="background" aria-hidden="true" d="M0,0h82.03759765625v11h-82.03759765625Z" pointer-events="none" opacity="1"/><g><g class="mark-symbol role-legend-symbol" pointer-events="none"><path transform="translate(6,6)" d="M-5,0L5,0" stroke="#9333ea" stroke-width="1.5" opacity="1"/></g><g class="mark-text role-legend-label" pointer-events="none"><text text-anchor="start" transform="translate(16,9)" font-family="Lexend, system-ui, sans-serif" font-size="11px" fill="#000" opacity="1">United States</text></g></g><path class="foreground" aria-hidden="true" d="" pointer-events="none" display="none"/></g></g></g><path class="foreground" aria-hidden="true" d="" pointer-events="none" display="none"/></g></g><g class="mark-text role-legend-title" pointer-events="none"><text text-anchor="start" transform="translate(0,9)" font-family="Lexend, system-ui, sans-serif" font-size="12px" font-weight="bold" fill="#000" opacity="1">short_name</text></g></g><path class="foreground" aria-hidden="true" d="" pointer-events="none" display="none"/></g></g><g class="mark-group role-title"><g transform="translate(-45.4091796875,-26)"><path class="background" aria-hidden="true" d="M0,0h0v0h0Z" pointer-events="none"/><g><g class="mark-text role-title-text" role="graphics-symbol" aria-roledescription="title" aria-label="Title text 'The Reproduction of Capital: Investment as % of GDP'" pointer-events="none"><text text-anchor="start" transform="translate(0,13)" font-family="Lexend, system-ui, sans-serif" font-size="16px" font-weight="600" fill="#1a1a2e" opacity="1">The Reproduction of Capital: Investment as % of GDP</text></g></g><path class="foreground" aria-hidden="true" d="" pointer-events="none" display="none"/></g></g></g><path class="foreground" aria-hidden="true" d="" display="none"/></g></g></g></svg>